<svg width="644" height="631" viewBox="0 0 644 631" fill="none" xmlns="http://www.w3.org/2000/svg">
<path d="M285.788 226.409L295.292 291.438L228.909 283.642L285.788 226.409Z" fill="#F9D34C"/>
<path d="M190.047 272.808L276.603 187.194L205.474 22.0913L149.537 77.6752L157.191 106.998L129.988 98.0481L104.198 122.327L121.038 179.54L71.3425 154.845L21.9999 203.681L190.047 272.808Z" fill="#F9D34C"/>
<path d="M295.292 291.438C319.211 321.397 375.957 388.057 411.587 415.02C447.218 441.984 535.305 532.777 574.895 574.804C583.278 583.186 604.471 604.38 622.183 622.091M295.292 291.438L285.788 226.409L228.909 283.642L295.292 291.438ZM276.603 187.194L190.047 272.808L21.9999 203.681L71.3424 154.845L121.038 179.54L104.198 122.327L129.988 98.0481L157.191 106.998L149.537 77.6752L205.474 22.0913L276.603 187.194Z" stroke="#363827" stroke-width="24.0353"/>
<path d="M417.773 285.788L352.745 295.292L360.541 228.909L417.773 285.788Z" fill="#F9D34C"/>
<path d="M371.375 190.047L456.988 276.603L622.091 205.474L566.507 149.537L537.185 157.191L546.135 129.988L521.856 104.198L464.643 121.038L489.337 71.3425L440.502 21.9999L371.375 190.047Z" fill="#F9D34C"/>
<path d="M352.745 295.292C322.785 319.211 256.126 375.957 229.162 411.587C202.199 447.218 111.405 535.305 69.3789 574.895C60.9962 583.278 39.8028 604.471 22.0913 622.183M352.745 295.292L417.773 285.788L360.541 228.909L352.745 295.292ZM456.988 276.603L371.375 190.047L440.502 21.9999L489.337 71.3425L464.643 121.038L521.856 104.198L546.135 129.988L537.185 157.191L566.507 149.537L622.091 205.474L456.988 276.603Z" stroke="#363827" stroke-width="24.0353"/>
</svg>
